<mxfile host="Electron" modified="2023-04-26T06:55:51.476Z" agent="Mozilla/5.0 (Windows NT 10.0; Win64; x64) AppleWebKit/537.36 (KHTML, like Gecko) draw.io/21.2.1 Chrome/112.0.5615.87 Electron/24.1.2 Safari/537.36" etag="JrSTj0OUARILLxZUZc0a" version="21.2.1" type="device">
  <diagram name="Page-1" id="90a13364-a465-7bf4-72fc-28e22215d7a0">
    <mxGraphModel dx="7810" dy="5440" grid="1" gridSize="10" guides="1" tooltips="1" connect="1" arrows="1" fold="1" page="1" pageScale="1.5" pageWidth="1169" pageHeight="826" background="none" math="0" shadow="0">
      <root>
        <mxCell id="0" style=";html=1;" />
        <mxCell id="1" style=";html=1;" parent="0" />
        <mxCell id="tQY6BfCOZmGEvX_oJBTy-113" value="" style="rounded=0;whiteSpace=wrap;html=1;labelBackgroundColor=none;labelBorderColor=none;" parent="1" vertex="1">
          <mxGeometry x="710" y="440" width="1240" height="380" as="geometry" />
        </mxCell>
        <mxCell id="tQY6BfCOZmGEvX_oJBTy-114" value="" style="rounded=0;whiteSpace=wrap;html=1;labelBackgroundColor=none;labelBorderColor=none;" parent="1" vertex="1">
          <mxGeometry x="900" y="500" width="1040" height="310" as="geometry" />
        </mxCell>
        <mxCell id="tQY6BfCOZmGEvX_oJBTy-112" value="" style="rounded=0;whiteSpace=wrap;html=1;labelBackgroundColor=none;labelBorderColor=none;" parent="1" vertex="1">
          <mxGeometry x="710" y="825" width="1240" height="435" as="geometry" />
        </mxCell>
        <mxCell id="tQY6BfCOZmGEvX_oJBTy-111" value="" style="rounded=0;whiteSpace=wrap;html=1;labelBackgroundColor=none;labelBorderColor=none;" parent="1" vertex="1">
          <mxGeometry x="920" y="837" width="1020" height="370" as="geometry" />
        </mxCell>
        <mxCell id="tQY6BfCOZmGEvX_oJBTy-40" style="edgeStyle=none;rounded=0;orthogonalLoop=1;jettySize=auto;html=1;exitX=1;exitY=0.5;exitDx=0;exitDy=0;entryX=0.5;entryY=0;entryDx=0;entryDy=0;" parent="1" source="3a17f1ce550125da-8" target="tQY6BfCOZmGEvX_oJBTy-38" edge="1">
          <mxGeometry relative="1" as="geometry">
            <mxPoint x="1440" y="545.3333333333335" as="targetPoint" />
            <Array as="points">
              <mxPoint x="1445" y="592" />
            </Array>
          </mxGeometry>
        </mxCell>
        <mxCell id="3a17f1ce550125da-8" value="K-rom&lt;br&gt;S_0_7" style="whiteSpace=wrap;html=1;shadow=1;fontSize=18;fillColor=#f5f5f5;strokeColor=#666666;" parent="1" vertex="1">
          <mxGeometry x="1230" y="517" width="120" height="150" as="geometry" />
        </mxCell>
        <mxCell id="tQY6BfCOZmGEvX_oJBTy-34" style="edgeStyle=none;rounded=0;orthogonalLoop=1;jettySize=auto;html=1;exitX=1;exitY=0.5;exitDx=0;exitDy=0;entryX=0;entryY=0;entryDx=0;entryDy=0;" parent="1" source="3a17f1ce550125da-11" target="tQY6BfCOZmGEvX_oJBTy-28" edge="1">
          <mxGeometry relative="1" as="geometry" />
        </mxCell>
        <mxCell id="3a17f1ce550125da-11" value="real_pow_2&lt;br&gt;U_0_14" style="whiteSpace=wrap;html=1;shadow=1;fontSize=18;fillColor=#f5f5f5;strokeColor=#666666;" parent="1" vertex="1">
          <mxGeometry x="940" y="638" width="120" height="60" as="geometry" />
        </mxCell>
        <mxCell id="tQY6BfCOZmGEvX_oJBTy-24" style="edgeStyle=none;rounded=0;orthogonalLoop=1;jettySize=auto;html=1;exitX=1;exitY=0.5;exitDx=0;exitDy=0;entryX=0;entryY=0.5;entryDx=0;entryDy=0;" parent="1" source="tQY6BfCOZmGEvX_oJBTy-2" target="3a17f1ce550125da-11" edge="1">
          <mxGeometry relative="1" as="geometry" />
        </mxCell>
        <mxCell id="tQY6BfCOZmGEvX_oJBTy-2" value="X" style="ellipse;whiteSpace=wrap;html=1;aspect=fixed;" parent="1" vertex="1">
          <mxGeometry x="840" y="643" width="50" height="50" as="geometry" />
        </mxCell>
        <mxCell id="tQY6BfCOZmGEvX_oJBTy-6" style="edgeStyle=orthogonalEdgeStyle;rounded=0;orthogonalLoop=1;jettySize=auto;html=1;exitX=0.5;exitY=1;exitDx=0;exitDy=0;entryX=0;entryY=0.5;entryDx=0;entryDy=0;" parent="1" source="tQY6BfCOZmGEvX_oJBTy-5" target="tQY6BfCOZmGEvX_oJBTy-2" edge="1">
          <mxGeometry relative="1" as="geometry">
            <Array as="points">
              <mxPoint x="790" y="668" />
              <mxPoint x="790" y="668" />
            </Array>
          </mxGeometry>
        </mxCell>
        <mxCell id="tQY6BfCOZmGEvX_oJBTy-8" style="edgeStyle=none;rounded=0;orthogonalLoop=1;jettySize=auto;html=1;entryX=0.5;entryY=0;entryDx=0;entryDy=0;" parent="1" target="tQY6BfCOZmGEvX_oJBTy-2" edge="1">
          <mxGeometry relative="1" as="geometry">
            <mxPoint x="750" y="614" as="sourcePoint" />
            <Array as="points">
              <mxPoint x="750" y="668" />
              <mxPoint x="750" y="614" />
              <mxPoint x="810" y="614" />
              <mxPoint x="865" y="614" />
            </Array>
          </mxGeometry>
        </mxCell>
        <mxCell id="tQY6BfCOZmGEvX_oJBTy-56" style="edgeStyle=none;rounded=0;orthogonalLoop=1;jettySize=auto;html=1;entryX=0;entryY=0.75;entryDx=0;entryDy=0;" parent="1" target="tQY6BfCOZmGEvX_oJBTy-55" edge="1">
          <mxGeometry relative="1" as="geometry">
            <mxPoint x="620" y="668" as="sourcePoint" />
            <Array as="points">
              <mxPoint x="620" y="1085" />
            </Array>
          </mxGeometry>
        </mxCell>
        <mxCell id="tQY6BfCOZmGEvX_oJBTy-5" value="" style="shape=offPageConnector;whiteSpace=wrap;html=1;rotation=-90;size=0.5436717998075092;" parent="1" vertex="1">
          <mxGeometry x="477.37" y="609.56" width="30" height="116.89" as="geometry" />
        </mxCell>
        <mxCell id="tQY6BfCOZmGEvX_oJBTy-27" style="edgeStyle=none;rounded=0;orthogonalLoop=1;jettySize=auto;html=1;exitX=1;exitY=0.5;exitDx=0;exitDy=0;entryX=0;entryY=0.5;entryDx=0;entryDy=0;" parent="1" source="tQY6BfCOZmGEvX_oJBTy-20" target="tQY6BfCOZmGEvX_oJBTy-26" edge="1">
          <mxGeometry relative="1" as="geometry" />
        </mxCell>
        <mxCell id="tQY6BfCOZmGEvX_oJBTy-20" value="X" style="ellipse;whiteSpace=wrap;html=1;aspect=fixed;" parent="1" vertex="1">
          <mxGeometry x="840" y="741.44" width="50" height="50" as="geometry" />
        </mxCell>
        <mxCell id="tQY6BfCOZmGEvX_oJBTy-21" style="edgeStyle=orthogonalEdgeStyle;rounded=0;orthogonalLoop=1;jettySize=auto;html=1;exitX=0.5;exitY=1;exitDx=0;exitDy=0;entryX=0;entryY=0.5;entryDx=0;entryDy=0;" parent="1" source="tQY6BfCOZmGEvX_oJBTy-23" target="tQY6BfCOZmGEvX_oJBTy-20" edge="1">
          <mxGeometry relative="1" as="geometry">
            <Array as="points">
              <mxPoint x="790" y="766.44" />
              <mxPoint x="790" y="766.44" />
            </Array>
          </mxGeometry>
        </mxCell>
        <mxCell id="tQY6BfCOZmGEvX_oJBTy-22" style="edgeStyle=none;rounded=0;orthogonalLoop=1;jettySize=auto;html=1;entryX=0.5;entryY=0;entryDx=0;entryDy=0;" parent="1" target="tQY6BfCOZmGEvX_oJBTy-20" edge="1">
          <mxGeometry relative="1" as="geometry">
            <mxPoint x="750" y="766.44" as="sourcePoint" />
            <Array as="points">
              <mxPoint x="750" y="714" />
              <mxPoint x="865" y="714" />
            </Array>
          </mxGeometry>
        </mxCell>
        <mxCell id="tQY6BfCOZmGEvX_oJBTy-57" style="edgeStyle=none;rounded=0;orthogonalLoop=1;jettySize=auto;html=1;entryX=0;entryY=0.25;entryDx=0;entryDy=0;" parent="1" target="tQY6BfCOZmGEvX_oJBTy-55" edge="1">
          <mxGeometry relative="1" as="geometry">
            <mxPoint x="660" y="766" as="sourcePoint" />
            <Array as="points">
              <mxPoint x="660" y="970" />
            </Array>
          </mxGeometry>
        </mxCell>
        <mxCell id="tQY6BfCOZmGEvX_oJBTy-23" value="" style="shape=offPageConnector;whiteSpace=wrap;html=1;rotation=-90;size=0.6677551020408169;" parent="1" vertex="1">
          <mxGeometry x="478.11" y="704.95" width="32.79" height="122.18" as="geometry" />
        </mxCell>
        <mxCell id="tQY6BfCOZmGEvX_oJBTy-35" style="edgeStyle=none;rounded=0;orthogonalLoop=1;jettySize=auto;html=1;exitX=1;exitY=0.5;exitDx=0;exitDy=0;entryX=0;entryY=1;entryDx=0;entryDy=0;" parent="1" source="tQY6BfCOZmGEvX_oJBTy-26" target="tQY6BfCOZmGEvX_oJBTy-28" edge="1">
          <mxGeometry relative="1" as="geometry" />
        </mxCell>
        <mxCell id="tQY6BfCOZmGEvX_oJBTy-26" value="imag_pow_2&lt;br&gt;U_0_14" style="whiteSpace=wrap;html=1;shadow=1;fontSize=18;fillColor=#f5f5f5;strokeColor=#666666;" parent="1" vertex="1">
          <mxGeometry x="940" y="736.44" width="120" height="60" as="geometry" />
        </mxCell>
        <mxCell id="tQY6BfCOZmGEvX_oJBTy-37" style="edgeStyle=none;rounded=0;orthogonalLoop=1;jettySize=auto;html=1;exitX=1;exitY=0.5;exitDx=0;exitDy=0;entryX=0;entryY=0.5;entryDx=0;entryDy=0;" parent="1" source="tQY6BfCOZmGEvX_oJBTy-28" target="tQY6BfCOZmGEvX_oJBTy-36" edge="1">
          <mxGeometry relative="1" as="geometry" />
        </mxCell>
        <mxCell id="tQY6BfCOZmGEvX_oJBTy-28" value="&lt;font style=&quot;font-size: 22px;&quot;&gt;+&lt;/font&gt;" style="ellipse;whiteSpace=wrap;html=1;aspect=fixed;" parent="1" vertex="1">
          <mxGeometry x="1130" y="693" width="50" height="50" as="geometry" />
        </mxCell>
        <mxCell id="tQY6BfCOZmGEvX_oJBTy-39" style="edgeStyle=none;rounded=0;orthogonalLoop=1;jettySize=auto;html=1;exitX=1;exitY=0.5;exitDx=0;exitDy=0;entryX=0;entryY=0.5;entryDx=0;entryDy=0;" parent="1" source="tQY6BfCOZmGEvX_oJBTy-36" target="tQY6BfCOZmGEvX_oJBTy-38" edge="1">
          <mxGeometry relative="1" as="geometry" />
        </mxCell>
        <mxCell id="tQY6BfCOZmGEvX_oJBTy-36" value="sqrt_in&lt;br&gt;U_1_14" style="whiteSpace=wrap;html=1;shadow=1;fontSize=18;fillColor=#f5f5f5;strokeColor=#666666;" parent="1" vertex="1">
          <mxGeometry x="1230" y="688" width="120" height="60" as="geometry" />
        </mxCell>
        <mxCell id="tQY6BfCOZmGEvX_oJBTy-38" value="X" style="ellipse;whiteSpace=wrap;html=1;aspect=fixed;" parent="1" vertex="1">
          <mxGeometry x="1420" y="693.44" width="50" height="50" as="geometry" />
        </mxCell>
        <mxCell id="tQY6BfCOZmGEvX_oJBTy-41" style="edgeStyle=none;rounded=0;orthogonalLoop=1;jettySize=auto;html=1;exitX=1;exitY=0.5;exitDx=0;exitDy=0;entryX=0.5;entryY=0;entryDx=0;entryDy=0;" parent="1" edge="1">
          <mxGeometry relative="1" as="geometry">
            <mxPoint x="1735" y="693.44" as="targetPoint" />
            <Array as="points">
              <mxPoint x="1735" y="592" />
            </Array>
            <mxPoint x="1640" y="592" as="sourcePoint" />
          </mxGeometry>
        </mxCell>
        <mxCell id="tQY6BfCOZmGEvX_oJBTy-42" value="B-rom&lt;br&gt;S_0_7" style="whiteSpace=wrap;html=1;shadow=1;fontSize=18;fillColor=#f5f5f5;strokeColor=#666666;" parent="1" vertex="1">
          <mxGeometry x="1520" y="517" width="120" height="150" as="geometry" />
        </mxCell>
        <mxCell id="tQY6BfCOZmGEvX_oJBTy-43" style="edgeStyle=none;rounded=0;orthogonalLoop=1;jettySize=auto;html=1;exitX=1;exitY=0.5;exitDx=0;exitDy=0;entryX=0;entryY=0.5;entryDx=0;entryDy=0;" parent="1" target="tQY6BfCOZmGEvX_oJBTy-45" edge="1">
          <mxGeometry relative="1" as="geometry">
            <mxPoint x="1470" y="718" as="sourcePoint" />
          </mxGeometry>
        </mxCell>
        <mxCell id="tQY6BfCOZmGEvX_oJBTy-44" style="edgeStyle=none;rounded=0;orthogonalLoop=1;jettySize=auto;html=1;exitX=1;exitY=0.5;exitDx=0;exitDy=0;entryX=0;entryY=0.5;entryDx=0;entryDy=0;" parent="1" source="tQY6BfCOZmGEvX_oJBTy-45" target="tQY6BfCOZmGEvX_oJBTy-46" edge="1">
          <mxGeometry relative="1" as="geometry" />
        </mxCell>
        <mxCell id="tQY6BfCOZmGEvX_oJBTy-45" value="mul_K&lt;br&gt;S_0_21" style="whiteSpace=wrap;html=1;shadow=1;fontSize=18;fillColor=#f5f5f5;strokeColor=#666666;" parent="1" vertex="1">
          <mxGeometry x="1520" y="688" width="120" height="60" as="geometry" />
        </mxCell>
        <mxCell id="tQY6BfCOZmGEvX_oJBTy-46" value="&lt;font style=&quot;font-size: 24px;&quot;&gt;+&lt;/font&gt;" style="ellipse;whiteSpace=wrap;html=1;aspect=fixed;" parent="1" vertex="1">
          <mxGeometry x="1710" y="693.44" width="50" height="50" as="geometry" />
        </mxCell>
        <mxCell id="tQY6BfCOZmGEvX_oJBTy-53" style="edgeStyle=none;rounded=0;orthogonalLoop=1;jettySize=auto;html=1;exitX=1;exitY=0.5;exitDx=0;exitDy=0;entryX=0;entryY=0.5;entryDx=0;entryDy=0;" parent="1" target="tQY6BfCOZmGEvX_oJBTy-54" edge="1">
          <mxGeometry relative="1" as="geometry">
            <mxPoint x="1760" y="718" as="sourcePoint" />
          </mxGeometry>
        </mxCell>
        <mxCell id="tQY6BfCOZmGEvX_oJBTy-97" style="edgeStyle=none;rounded=0;orthogonalLoop=1;jettySize=auto;html=1;exitX=1;exitY=0.5;exitDx=0;exitDy=0;entryX=0.5;entryY=1;entryDx=0;entryDy=0;" parent="1" source="tQY6BfCOZmGEvX_oJBTy-54" edge="1">
          <mxGeometry relative="1" as="geometry">
            <mxPoint x="2019.065" y="718.4400000000003" as="targetPoint" />
          </mxGeometry>
        </mxCell>
        <mxCell id="tQY6BfCOZmGEvX_oJBTy-54" value="add_B&lt;br&gt;U_2_21" style="whiteSpace=wrap;html=1;shadow=1;fontSize=18;fillColor=#f5f5f5;strokeColor=#666666;" parent="1" vertex="1">
          <mxGeometry x="1810" y="688" width="120" height="60" as="geometry" />
        </mxCell>
        <mxCell id="tQY6BfCOZmGEvX_oJBTy-60" style="edgeStyle=none;rounded=0;orthogonalLoop=1;jettySize=auto;html=1;exitX=1;exitY=0.25;exitDx=0;exitDy=0;entryX=0;entryY=0.5;entryDx=0;entryDy=0;" parent="1" source="tQY6BfCOZmGEvX_oJBTy-55" target="tQY6BfCOZmGEvX_oJBTy-58" edge="1">
          <mxGeometry relative="1" as="geometry" />
        </mxCell>
        <mxCell id="tQY6BfCOZmGEvX_oJBTy-55" value="&lt;font style=&quot;font-size: 22px;&quot;&gt;Pattern&lt;br&gt;Match&lt;/font&gt;" style="whiteSpace=wrap;html=1;shadow=1;fontSize=18;fillColor=#f5f5f5;strokeColor=#666666;" parent="1" vertex="1">
          <mxGeometry x="753" y="912" width="131" height="230" as="geometry" />
        </mxCell>
        <mxCell id="tQY6BfCOZmGEvX_oJBTy-64" style="edgeStyle=none;rounded=0;orthogonalLoop=1;jettySize=auto;html=1;exitX=1;exitY=0.5;exitDx=0;exitDy=0;entryX=0;entryY=0.5;entryDx=0;entryDy=0;" parent="1" source="tQY6BfCOZmGEvX_oJBTy-58" target="tQY6BfCOZmGEvX_oJBTy-62" edge="1">
          <mxGeometry relative="1" as="geometry" />
        </mxCell>
        <mxCell id="tQY6BfCOZmGEvX_oJBTy-65" style="edgeStyle=none;rounded=0;orthogonalLoop=1;jettySize=auto;html=1;entryX=0.5;entryY=0;entryDx=0;entryDy=0;" parent="1" target="tQY6BfCOZmGEvX_oJBTy-62" edge="1">
          <mxGeometry relative="1" as="geometry">
            <mxPoint x="1100" y="969" as="sourcePoint" />
            <Array as="points">
              <mxPoint x="1100" y="897" />
              <mxPoint x="1155" y="897" />
            </Array>
          </mxGeometry>
        </mxCell>
        <mxCell id="tQY6BfCOZmGEvX_oJBTy-67" style="edgeStyle=none;rounded=0;orthogonalLoop=1;jettySize=auto;html=1;entryX=0;entryY=0;entryDx=0;entryDy=0;" parent="1" target="tQY6BfCOZmGEvX_oJBTy-66" edge="1">
          <mxGeometry relative="1" as="geometry">
            <mxPoint x="1100" y="969" as="sourcePoint" />
            <Array as="points">
              <mxPoint x="1100" y="1037" />
            </Array>
          </mxGeometry>
        </mxCell>
        <mxCell id="tQY6BfCOZmGEvX_oJBTy-58" value="atan_poly_i&lt;br&gt;S_0_7" style="whiteSpace=wrap;html=1;shadow=1;fontSize=18;fillColor=#f5f5f5;strokeColor=#666666;" parent="1" vertex="1">
          <mxGeometry x="940" y="939" width="120" height="60" as="geometry" />
        </mxCell>
        <mxCell id="tQY6BfCOZmGEvX_oJBTy-68" style="edgeStyle=none;rounded=0;orthogonalLoop=1;jettySize=auto;html=1;exitX=1;exitY=0.5;exitDx=0;exitDy=0;entryX=0;entryY=0.5;entryDx=0;entryDy=0;" parent="1" source="tQY6BfCOZmGEvX_oJBTy-61" target="tQY6BfCOZmGEvX_oJBTy-66" edge="1">
          <mxGeometry relative="1" as="geometry" />
        </mxCell>
        <mxCell id="tQY6BfCOZmGEvX_oJBTy-61" value="para_B&lt;br&gt;S_0_7" style="whiteSpace=wrap;html=1;shadow=1;fontSize=18;fillColor=#f5f5f5;strokeColor=#666666;" parent="1" vertex="1">
          <mxGeometry x="940" y="1037" width="120" height="60" as="geometry" />
        </mxCell>
        <mxCell id="tQY6BfCOZmGEvX_oJBTy-75" style="edgeStyle=none;rounded=0;orthogonalLoop=1;jettySize=auto;html=1;exitX=1;exitY=0.5;exitDx=0;exitDy=0;entryX=0;entryY=0.5;entryDx=0;entryDy=0;" parent="1" source="tQY6BfCOZmGEvX_oJBTy-62" target="tQY6BfCOZmGEvX_oJBTy-74" edge="1">
          <mxGeometry relative="1" as="geometry" />
        </mxCell>
        <mxCell id="tQY6BfCOZmGEvX_oJBTy-62" value="X" style="ellipse;whiteSpace=wrap;html=1;aspect=fixed;" parent="1" vertex="1">
          <mxGeometry x="1130" y="944" width="50" height="50" as="geometry" />
        </mxCell>
        <mxCell id="tQY6BfCOZmGEvX_oJBTy-76" style="edgeStyle=none;rounded=0;orthogonalLoop=1;jettySize=auto;html=1;exitX=1;exitY=0.5;exitDx=0;exitDy=0;entryX=0;entryY=0.5;entryDx=0;entryDy=0;" parent="1" source="tQY6BfCOZmGEvX_oJBTy-66" target="tQY6BfCOZmGEvX_oJBTy-70" edge="1">
          <mxGeometry relative="1" as="geometry" />
        </mxCell>
        <mxCell id="tQY6BfCOZmGEvX_oJBTy-66" value="X" style="ellipse;whiteSpace=wrap;html=1;aspect=fixed;" parent="1" vertex="1">
          <mxGeometry x="1130" y="1042" width="50" height="50" as="geometry" />
        </mxCell>
        <mxCell id="tQY6BfCOZmGEvX_oJBTy-81" style="edgeStyle=none;rounded=0;orthogonalLoop=1;jettySize=auto;html=1;exitX=1;exitY=0.5;exitDx=0;exitDy=0;entryX=0;entryY=0.5;entryDx=0;entryDy=0;" parent="1" source="tQY6BfCOZmGEvX_oJBTy-70" target="tQY6BfCOZmGEvX_oJBTy-78" edge="1">
          <mxGeometry relative="1" as="geometry" />
        </mxCell>
        <mxCell id="tQY6BfCOZmGEvX_oJBTy-70" value="mul_B&lt;br&gt;S_0_14" style="whiteSpace=wrap;html=1;shadow=1;fontSize=18;fillColor=#f5f5f5;strokeColor=#666666;" parent="1" vertex="1">
          <mxGeometry x="1230" y="1037" width="120" height="60" as="geometry" />
        </mxCell>
        <mxCell id="tQY6BfCOZmGEvX_oJBTy-82" style="edgeStyle=none;rounded=0;orthogonalLoop=1;jettySize=auto;html=1;exitX=1;exitY=0.5;exitDx=0;exitDy=0;entryX=0;entryY=1;entryDx=0;entryDy=0;" parent="1" source="tQY6BfCOZmGEvX_oJBTy-71" target="tQY6BfCOZmGEvX_oJBTy-78" edge="1">
          <mxGeometry relative="1" as="geometry">
            <Array as="points">
              <mxPoint x="1400" y="1165" />
            </Array>
          </mxGeometry>
        </mxCell>
        <mxCell id="tQY6BfCOZmGEvX_oJBTy-71" value="para_C&lt;br&gt;S_0_7" style="whiteSpace=wrap;html=1;shadow=1;fontSize=18;fillColor=#f5f5f5;strokeColor=#666666;" parent="1" vertex="1">
          <mxGeometry x="1230" y="1135" width="120" height="60" as="geometry" />
        </mxCell>
        <mxCell id="tQY6BfCOZmGEvX_oJBTy-80" style="edgeStyle=none;rounded=0;orthogonalLoop=1;jettySize=auto;html=1;exitX=1;exitY=0.5;exitDx=0;exitDy=0;entryX=0;entryY=0;entryDx=0;entryDy=0;" parent="1" source="tQY6BfCOZmGEvX_oJBTy-73" target="tQY6BfCOZmGEvX_oJBTy-77" edge="1">
          <mxGeometry relative="1" as="geometry">
            <Array as="points">
              <mxPoint x="1400" y="871" />
            </Array>
          </mxGeometry>
        </mxCell>
        <mxCell id="tQY6BfCOZmGEvX_oJBTy-73" value="para_A&lt;br&gt;S_0_7" style="whiteSpace=wrap;html=1;shadow=1;fontSize=18;fillColor=#f5f5f5;strokeColor=#666666;" parent="1" vertex="1">
          <mxGeometry x="1230" y="841" width="120" height="60" as="geometry" />
        </mxCell>
        <mxCell id="tQY6BfCOZmGEvX_oJBTy-79" style="edgeStyle=none;rounded=0;orthogonalLoop=1;jettySize=auto;html=1;exitX=1;exitY=0.5;exitDx=0;exitDy=0;entryX=0;entryY=0.5;entryDx=0;entryDy=0;" parent="1" source="tQY6BfCOZmGEvX_oJBTy-74" target="tQY6BfCOZmGEvX_oJBTy-77" edge="1">
          <mxGeometry relative="1" as="geometry" />
        </mxCell>
        <mxCell id="tQY6BfCOZmGEvX_oJBTy-74" value="atan_poly_pow_2&lt;br&gt;U_2_14" style="whiteSpace=wrap;html=1;shadow=1;fontSize=18;fillColor=#f5f5f5;strokeColor=#666666;" parent="1" vertex="1">
          <mxGeometry x="1215" y="939" width="150" height="60" as="geometry" />
        </mxCell>
        <mxCell id="tQY6BfCOZmGEvX_oJBTy-85" style="edgeStyle=none;rounded=0;orthogonalLoop=1;jettySize=auto;html=1;exitX=1;exitY=0.5;exitDx=0;exitDy=0;entryX=0;entryY=0.5;entryDx=0;entryDy=0;" parent="1" source="tQY6BfCOZmGEvX_oJBTy-77" target="tQY6BfCOZmGEvX_oJBTy-84" edge="1">
          <mxGeometry relative="1" as="geometry" />
        </mxCell>
        <mxCell id="tQY6BfCOZmGEvX_oJBTy-77" value="X" style="ellipse;whiteSpace=wrap;html=1;aspect=fixed;" parent="1" vertex="1">
          <mxGeometry x="1420" y="944" width="50" height="50" as="geometry" />
        </mxCell>
        <mxCell id="tQY6BfCOZmGEvX_oJBTy-86" style="edgeStyle=none;rounded=0;orthogonalLoop=1;jettySize=auto;html=1;exitX=1;exitY=0.5;exitDx=0;exitDy=0;entryX=0;entryY=0.5;entryDx=0;entryDy=0;" parent="1" source="tQY6BfCOZmGEvX_oJBTy-78" target="tQY6BfCOZmGEvX_oJBTy-83" edge="1">
          <mxGeometry relative="1" as="geometry" />
        </mxCell>
        <mxCell id="tQY6BfCOZmGEvX_oJBTy-78" value="&lt;font style=&quot;font-size: 24px;&quot;&gt;+&lt;/font&gt;" style="ellipse;whiteSpace=wrap;html=1;aspect=fixed;" parent="1" vertex="1">
          <mxGeometry x="1420" y="1042" width="50" height="50" as="geometry" />
        </mxCell>
        <mxCell id="tQY6BfCOZmGEvX_oJBTy-90" style="edgeStyle=none;rounded=0;orthogonalLoop=1;jettySize=auto;html=1;exitX=1;exitY=0.5;exitDx=0;exitDy=0;entryX=0;entryY=1;entryDx=0;entryDy=0;" parent="1" source="tQY6BfCOZmGEvX_oJBTy-83" target="tQY6BfCOZmGEvX_oJBTy-87" edge="1">
          <mxGeometry relative="1" as="geometry" />
        </mxCell>
        <mxCell id="tQY6BfCOZmGEvX_oJBTy-83" value="add_C&lt;br&gt;S_1_14" style="whiteSpace=wrap;html=1;shadow=1;fontSize=18;fillColor=#f5f5f5;strokeColor=#666666;" parent="1" vertex="1">
          <mxGeometry x="1520" y="1037" width="120" height="60" as="geometry" />
        </mxCell>
        <mxCell id="tQY6BfCOZmGEvX_oJBTy-89" style="edgeStyle=none;rounded=0;orthogonalLoop=1;jettySize=auto;html=1;exitX=1;exitY=0.5;exitDx=0;exitDy=0;entryX=0;entryY=0.5;entryDx=0;entryDy=0;" parent="1" source="tQY6BfCOZmGEvX_oJBTy-84" target="tQY6BfCOZmGEvX_oJBTy-87" edge="1">
          <mxGeometry relative="1" as="geometry" />
        </mxCell>
        <mxCell id="tQY6BfCOZmGEvX_oJBTy-84" value="mul_A&lt;br&gt;S_2_21" style="whiteSpace=wrap;html=1;shadow=1;fontSize=18;fillColor=#f5f5f5;strokeColor=#666666;" parent="1" vertex="1">
          <mxGeometry x="1520" y="939" width="120" height="60" as="geometry" />
        </mxCell>
        <mxCell id="tQY6BfCOZmGEvX_oJBTy-87" value="&lt;font style=&quot;font-size: 24px;&quot;&gt;+&lt;/font&gt;" style="ellipse;whiteSpace=wrap;html=1;aspect=fixed;" parent="1" vertex="1">
          <mxGeometry x="1710" y="944" width="50" height="50" as="geometry" />
        </mxCell>
        <mxCell id="tQY6BfCOZmGEvX_oJBTy-93" style="edgeStyle=none;rounded=0;orthogonalLoop=1;jettySize=auto;html=1;exitX=1;exitY=0.5;exitDx=0;exitDy=0;entryX=0;entryY=0.5;entryDx=0;entryDy=0;" parent="1" target="tQY6BfCOZmGEvX_oJBTy-94" edge="1">
          <mxGeometry relative="1" as="geometry">
            <mxPoint x="1760" y="969" as="sourcePoint" />
          </mxGeometry>
        </mxCell>
        <mxCell id="tQY6BfCOZmGEvX_oJBTy-100" style="edgeStyle=none;rounded=0;orthogonalLoop=1;jettySize=auto;html=1;exitX=1;exitY=0.5;exitDx=0;exitDy=0;entryX=0.5;entryY=1;entryDx=0;entryDy=0;" parent="1" source="tQY6BfCOZmGEvX_oJBTy-94" target="tQY6BfCOZmGEvX_oJBTy-109" edge="1">
          <mxGeometry relative="1" as="geometry">
            <mxPoint x="2019" y="849" as="targetPoint" />
            <Array as="points">
              <mxPoint x="1970" y="969" />
            </Array>
          </mxGeometry>
        </mxCell>
        <mxCell id="tQY6BfCOZmGEvX_oJBTy-94" value="angle_r&lt;br&gt;S_3_21" style="whiteSpace=wrap;html=1;shadow=1;fontSize=18;fillColor=#f5f5f5;strokeColor=#666666;" parent="1" vertex="1">
          <mxGeometry x="1810" y="939" width="120" height="60" as="geometry" />
        </mxCell>
        <mxCell id="tQY6BfCOZmGEvX_oJBTy-101" value="real_i&lt;br&gt;S_0_7" style="text;html=1;align=center;verticalAlign=middle;resizable=0;points=[];autosize=1;strokeColor=none;fillColor=none;" parent="1" vertex="1">
          <mxGeometry x="431.25" y="648" width="60" height="40" as="geometry" />
        </mxCell>
        <mxCell id="tQY6BfCOZmGEvX_oJBTy-102" value="imag_i&lt;br&gt;S_0_7" style="text;html=1;align=center;verticalAlign=middle;resizable=0;points=[];autosize=1;strokeColor=none;fillColor=none;" parent="1" vertex="1">
          <mxGeometry x="431.25" y="745" width="60" height="40" as="geometry" />
        </mxCell>
        <mxCell id="tQY6BfCOZmGEvX_oJBTy-107" value="" style="shape=offPageConnector;whiteSpace=wrap;html=1;rotation=90;size=0.5436717998075092;" parent="1" vertex="1">
          <mxGeometry x="2063" y="660" width="30" height="116.89" as="geometry" />
        </mxCell>
        <mxCell id="tQY6BfCOZmGEvX_oJBTy-108" value="abs_o&lt;br&gt;U_0_7" style="text;html=1;align=center;verticalAlign=middle;resizable=0;points=[];autosize=1;strokeColor=none;fillColor=none;" parent="1" vertex="1">
          <mxGeometry x="2078" y="698.44" width="60" height="40" as="geometry" />
        </mxCell>
        <mxCell id="tQY6BfCOZmGEvX_oJBTy-109" value="" style="shape=offPageConnector;whiteSpace=wrap;html=1;rotation=90;size=0.5436717998075092;" parent="1" vertex="1">
          <mxGeometry x="2063" y="910" width="30" height="116.89" as="geometry" />
        </mxCell>
        <mxCell id="tQY6BfCOZmGEvX_oJBTy-110" value="angle_o&lt;br&gt;S_3_12" style="text;html=1;align=center;verticalAlign=middle;resizable=0;points=[];autosize=1;strokeColor=none;fillColor=none;" parent="1" vertex="1">
          <mxGeometry x="2073" y="947.44" width="70" height="40" as="geometry" />
        </mxCell>
        <mxCell id="tQY6BfCOZmGEvX_oJBTy-116" value="&lt;font style=&quot;font-size: 22px;&quot;&gt;cal_angle&lt;/font&gt;" style="text;html=1;align=center;verticalAlign=middle;resizable=0;points=[];autosize=1;strokeColor=none;fillColor=none;" parent="1" vertex="1">
          <mxGeometry x="710" y="1220" width="120" height="40" as="geometry" />
        </mxCell>
        <mxCell id="tQY6BfCOZmGEvX_oJBTy-117" value="&lt;font style=&quot;font-size: 22px;&quot;&gt;atan_ploly&lt;/font&gt;" style="text;html=1;align=center;verticalAlign=middle;resizable=0;points=[];autosize=1;strokeColor=none;fillColor=none;" parent="1" vertex="1">
          <mxGeometry x="1820" y="837" width="120" height="40" as="geometry" />
        </mxCell>
        <mxCell id="tQY6BfCOZmGEvX_oJBTy-118" value="&lt;font style=&quot;font-size: 22px;&quot;&gt;sqrt_lut&lt;/font&gt;" style="text;html=1;align=center;verticalAlign=middle;resizable=0;points=[];autosize=1;strokeColor=none;fillColor=none;" parent="1" vertex="1">
          <mxGeometry x="1830" y="500" width="100" height="40" as="geometry" />
        </mxCell>
        <mxCell id="tQY6BfCOZmGEvX_oJBTy-119" value="&lt;font style=&quot;font-size: 22px;&quot;&gt;cal_abs&lt;/font&gt;" style="text;html=1;align=center;verticalAlign=middle;resizable=0;points=[];autosize=1;strokeColor=none;fillColor=none;" parent="1" vertex="1">
          <mxGeometry x="720" y="440" width="100" height="40" as="geometry" />
        </mxCell>
        <mxCell id="aiDiRxvGI4R1u5RQcpki-159" value="" style="rounded=1;whiteSpace=wrap;html=1;labelBackgroundColor=none;labelBorderColor=none;" parent="1" vertex="1">
          <mxGeometry x="731.75" y="1420" width="400" height="270" as="geometry" />
        </mxCell>
        <mxCell id="aiDiRxvGI4R1u5RQcpki-160" value="" style="rounded=1;whiteSpace=wrap;html=1;labelBackgroundColor=none;labelBorderColor=none;glass=0;shadow=0;" parent="1" vertex="1">
          <mxGeometry x="731.75" y="1750" width="400" height="310" as="geometry" />
        </mxCell>
        <mxCell id="aiDiRxvGI4R1u5RQcpki-161" style="edgeStyle=none;rounded=0;orthogonalLoop=1;jettySize=auto;html=1;exitX=1;exitY=0.5;exitDx=0;exitDy=0;entryX=0;entryY=0.5;entryDx=0;entryDy=0;" parent="1" source="aiDiRxvGI4R1u5RQcpki-162" edge="1">
          <mxGeometry relative="1" as="geometry">
            <mxPoint x="961.75" y="1538" as="targetPoint" />
          </mxGeometry>
        </mxCell>
        <mxCell id="aiDiRxvGI4R1u5RQcpki-162" value="X" style="ellipse;whiteSpace=wrap;html=1;aspect=fixed;" parent="1" vertex="1">
          <mxGeometry x="861.75" y="1513" width="50" height="50" as="geometry" />
        </mxCell>
        <mxCell id="aiDiRxvGI4R1u5RQcpki-163" style="edgeStyle=orthogonalEdgeStyle;rounded=0;orthogonalLoop=1;jettySize=auto;html=1;exitX=0.5;exitY=1;exitDx=0;exitDy=0;entryX=0;entryY=0.5;entryDx=0;entryDy=0;" parent="1" source="aiDiRxvGI4R1u5RQcpki-166" target="aiDiRxvGI4R1u5RQcpki-162" edge="1">
          <mxGeometry relative="1" as="geometry">
            <Array as="points">
              <mxPoint x="811.75" y="1538" />
              <mxPoint x="811.75" y="1538" />
            </Array>
          </mxGeometry>
        </mxCell>
        <mxCell id="aiDiRxvGI4R1u5RQcpki-164" style="edgeStyle=none;rounded=0;orthogonalLoop=1;jettySize=auto;html=1;entryX=0.5;entryY=0;entryDx=0;entryDy=0;" parent="1" target="aiDiRxvGI4R1u5RQcpki-162" edge="1">
          <mxGeometry relative="1" as="geometry">
            <mxPoint x="771.75" y="1484" as="sourcePoint" />
            <Array as="points">
              <mxPoint x="771.75" y="1538" />
              <mxPoint x="771.75" y="1484" />
              <mxPoint x="831.75" y="1484" />
              <mxPoint x="886.75" y="1484" />
            </Array>
          </mxGeometry>
        </mxCell>
        <mxCell id="aiDiRxvGI4R1u5RQcpki-165" style="edgeStyle=none;rounded=0;orthogonalLoop=1;jettySize=auto;html=1;entryX=0;entryY=0.75;entryDx=0;entryDy=0;" parent="1" target="aiDiRxvGI4R1u5RQcpki-175" edge="1">
          <mxGeometry relative="1" as="geometry">
            <mxPoint x="641.75" y="1538" as="sourcePoint" />
            <Array as="points">
              <mxPoint x="641.75" y="1955" />
            </Array>
          </mxGeometry>
        </mxCell>
        <mxCell id="aiDiRxvGI4R1u5RQcpki-166" value="" style="shape=offPageConnector;whiteSpace=wrap;html=1;rotation=-90;size=0.5436717998075092;" parent="1" vertex="1">
          <mxGeometry x="499.12" y="1479.56" width="30" height="116.89" as="geometry" />
        </mxCell>
        <mxCell id="aiDiRxvGI4R1u5RQcpki-167" style="edgeStyle=none;rounded=0;orthogonalLoop=1;jettySize=auto;html=1;exitX=1;exitY=0.5;exitDx=0;exitDy=0;entryX=0;entryY=0.5;entryDx=0;entryDy=0;" parent="1" source="aiDiRxvGI4R1u5RQcpki-168" edge="1">
          <mxGeometry relative="1" as="geometry">
            <mxPoint x="961.75" y="1636.44" as="targetPoint" />
          </mxGeometry>
        </mxCell>
        <mxCell id="aiDiRxvGI4R1u5RQcpki-168" value="X" style="ellipse;whiteSpace=wrap;html=1;aspect=fixed;" parent="1" vertex="1">
          <mxGeometry x="861.75" y="1611.44" width="50" height="50" as="geometry" />
        </mxCell>
        <mxCell id="aiDiRxvGI4R1u5RQcpki-169" style="edgeStyle=orthogonalEdgeStyle;rounded=0;orthogonalLoop=1;jettySize=auto;html=1;exitX=0.5;exitY=1;exitDx=0;exitDy=0;entryX=0;entryY=0.5;entryDx=0;entryDy=0;" parent="1" source="aiDiRxvGI4R1u5RQcpki-172" target="aiDiRxvGI4R1u5RQcpki-168" edge="1">
          <mxGeometry relative="1" as="geometry">
            <Array as="points">
              <mxPoint x="811.75" y="1636.44" />
              <mxPoint x="811.75" y="1636.44" />
            </Array>
          </mxGeometry>
        </mxCell>
        <mxCell id="aiDiRxvGI4R1u5RQcpki-170" style="edgeStyle=none;rounded=0;orthogonalLoop=1;jettySize=auto;html=1;entryX=0.5;entryY=0;entryDx=0;entryDy=0;" parent="1" target="aiDiRxvGI4R1u5RQcpki-168" edge="1">
          <mxGeometry relative="1" as="geometry">
            <mxPoint x="771.75" y="1636.44" as="sourcePoint" />
            <Array as="points">
              <mxPoint x="771.75" y="1584" />
              <mxPoint x="886.75" y="1584" />
            </Array>
          </mxGeometry>
        </mxCell>
        <mxCell id="aiDiRxvGI4R1u5RQcpki-171" style="edgeStyle=none;rounded=0;orthogonalLoop=1;jettySize=auto;html=1;entryX=0;entryY=0.25;entryDx=0;entryDy=0;" parent="1" target="aiDiRxvGI4R1u5RQcpki-175" edge="1">
          <mxGeometry relative="1" as="geometry">
            <mxPoint x="681.75" y="1636" as="sourcePoint" />
            <Array as="points">
              <mxPoint x="681.75" y="1840" />
            </Array>
          </mxGeometry>
        </mxCell>
        <mxCell id="aiDiRxvGI4R1u5RQcpki-172" value="" style="shape=offPageConnector;whiteSpace=wrap;html=1;rotation=-90;size=0.6677551020408169;" parent="1" vertex="1">
          <mxGeometry x="499.86" y="1574.95" width="32.79" height="122.18" as="geometry" />
        </mxCell>
        <mxCell id="aiDiRxvGI4R1u5RQcpki-173" style="edgeStyle=none;rounded=0;orthogonalLoop=1;jettySize=auto;html=1;exitX=1;exitY=0.5;exitDx=0;exitDy=0;entryX=0.5;entryY=1;entryDx=0;entryDy=0;" parent="1" edge="1">
          <mxGeometry relative="1" as="geometry">
            <mxPoint x="1181.815" y="1538.0000000000002" as="targetPoint" />
            <mxPoint x="1092.75" y="1537.56" as="sourcePoint" />
          </mxGeometry>
        </mxCell>
        <mxCell id="aiDiRxvGI4R1u5RQcpki-174" style="edgeStyle=none;rounded=0;orthogonalLoop=1;jettySize=auto;html=1;exitX=1;exitY=0.25;exitDx=0;exitDy=0;entryX=0;entryY=0.5;entryDx=0;entryDy=0;" parent="1" source="aiDiRxvGI4R1u5RQcpki-175" edge="1">
          <mxGeometry relative="1" as="geometry">
            <mxPoint x="961.75" y="1839" as="targetPoint" />
          </mxGeometry>
        </mxCell>
        <mxCell id="aiDiRxvGI4R1u5RQcpki-175" value="&lt;font style=&quot;font-size: 22px;&quot;&gt;Pattern&lt;br&gt;Match&lt;/font&gt;" style="whiteSpace=wrap;html=1;shadow=1;fontSize=18;fillColor=#f5f5f5;strokeColor=#666666;" parent="1" vertex="1">
          <mxGeometry x="774.75" y="1782" width="131" height="230" as="geometry" />
        </mxCell>
        <mxCell id="aiDiRxvGI4R1u5RQcpki-176" style="edgeStyle=none;rounded=0;orthogonalLoop=1;jettySize=auto;html=1;exitX=1;exitY=0.5;exitDx=0;exitDy=0;entryX=0.5;entryY=1;entryDx=0;entryDy=0;" parent="1" target="aiDiRxvGI4R1u5RQcpki-181" edge="1">
          <mxGeometry relative="1" as="geometry">
            <mxPoint x="1176.75" y="1721" as="targetPoint" />
            <Array as="points">
              <mxPoint x="1127.75" y="1841" />
            </Array>
            <mxPoint x="1087.75" y="1841" as="sourcePoint" />
          </mxGeometry>
        </mxCell>
        <mxCell id="aiDiRxvGI4R1u5RQcpki-177" value="real_i&lt;br&gt;S_0_7" style="text;html=1;align=center;verticalAlign=middle;resizable=0;points=[];autosize=1;strokeColor=none;fillColor=none;" parent="1" vertex="1">
          <mxGeometry x="453" y="1518" width="60" height="40" as="geometry" />
        </mxCell>
        <mxCell id="aiDiRxvGI4R1u5RQcpki-178" value="imag_i&lt;br&gt;S_0_7" style="text;html=1;align=center;verticalAlign=middle;resizable=0;points=[];autosize=1;strokeColor=none;fillColor=none;" parent="1" vertex="1">
          <mxGeometry x="453" y="1615" width="60" height="40" as="geometry" />
        </mxCell>
        <mxCell id="aiDiRxvGI4R1u5RQcpki-179" value="" style="shape=offPageConnector;whiteSpace=wrap;html=1;rotation=90;size=0.5436717998075092;" parent="1" vertex="1">
          <mxGeometry x="1225.75" y="1479.56" width="30" height="116.89" as="geometry" />
        </mxCell>
        <mxCell id="aiDiRxvGI4R1u5RQcpki-180" value="abs_o&lt;br&gt;U_0_7" style="text;html=1;align=center;verticalAlign=middle;resizable=0;points=[];autosize=1;strokeColor=none;fillColor=none;" parent="1" vertex="1">
          <mxGeometry x="1240.75" y="1518" width="60" height="40" as="geometry" />
        </mxCell>
        <mxCell id="aiDiRxvGI4R1u5RQcpki-181" value="" style="shape=offPageConnector;whiteSpace=wrap;html=1;rotation=90;size=0.5436717998075092;" parent="1" vertex="1">
          <mxGeometry x="1220.75" y="1782" width="30" height="116.89" as="geometry" />
        </mxCell>
        <mxCell id="aiDiRxvGI4R1u5RQcpki-182" value="angle_o&lt;br&gt;S_3_12" style="text;html=1;align=center;verticalAlign=middle;resizable=0;points=[];autosize=1;strokeColor=none;fillColor=none;" parent="1" vertex="1">
          <mxGeometry x="1230.75" y="1819.44" width="70" height="40" as="geometry" />
        </mxCell>
        <mxCell id="aiDiRxvGI4R1u5RQcpki-183" value="&lt;font style=&quot;font-size: 22px;&quot;&gt;cal_angle&lt;/font&gt;" style="text;html=1;align=center;verticalAlign=middle;resizable=0;points=[];autosize=1;strokeColor=none;fillColor=none;" parent="1" vertex="1">
          <mxGeometry x="765.75" y="2020" width="120" height="40" as="geometry" />
        </mxCell>
        <mxCell id="aiDiRxvGI4R1u5RQcpki-184" value="&lt;font style=&quot;font-size: 22px;&quot;&gt;cal_abs&lt;/font&gt;" style="text;html=1;align=center;verticalAlign=middle;resizable=0;points=[];autosize=1;strokeColor=none;fillColor=none;" parent="1" vertex="1">
          <mxGeometry x="774.75" y="1420" width="100" height="40" as="geometry" />
        </mxCell>
        <mxCell id="aiDiRxvGI4R1u5RQcpki-185" value="&lt;font style=&quot;font-size: 22px;&quot;&gt;atan_ploly&lt;/font&gt;" style="whiteSpace=wrap;html=1;shadow=1;fontSize=18;fillColor=#f5f5f5;strokeColor=#666666;" parent="1" vertex="1">
          <mxGeometry x="961.75" y="1782" width="131" height="230" as="geometry" />
        </mxCell>
        <mxCell id="aiDiRxvGI4R1u5RQcpki-186" value="&lt;font style=&quot;font-size: 22px;&quot;&gt;sqrt_lut&lt;/font&gt;" style="whiteSpace=wrap;html=1;shadow=1;fontSize=18;fillColor=#f5f5f5;strokeColor=#666666;" parent="1" vertex="1">
          <mxGeometry x="961.75" y="1440" width="131" height="230" as="geometry" />
        </mxCell>
        <mxCell id="pupvY-80oi3LW0AHCR_--1" value="" style="rounded=0;whiteSpace=wrap;html=1;labelBackgroundColor=none;labelBorderColor=none;" parent="1" vertex="1">
          <mxGeometry x="920" y="837" width="1020" height="370" as="geometry" />
        </mxCell>
        <mxCell id="pupvY-80oi3LW0AHCR_--2" style="edgeStyle=none;rounded=0;orthogonalLoop=1;jettySize=auto;html=1;exitX=1;exitY=0.5;exitDx=0;exitDy=0;entryX=0;entryY=0.5;entryDx=0;entryDy=0;" parent="1" source="pupvY-80oi3LW0AHCR_--5" target="pupvY-80oi3LW0AHCR_--9" edge="1">
          <mxGeometry relative="1" as="geometry" />
        </mxCell>
        <mxCell id="pupvY-80oi3LW0AHCR_--3" style="edgeStyle=none;rounded=0;orthogonalLoop=1;jettySize=auto;html=1;entryX=0.5;entryY=0;entryDx=0;entryDy=0;" parent="1" target="pupvY-80oi3LW0AHCR_--9" edge="1">
          <mxGeometry relative="1" as="geometry">
            <mxPoint x="1100" y="969" as="sourcePoint" />
            <Array as="points">
              <mxPoint x="1100" y="897" />
              <mxPoint x="1155" y="897" />
            </Array>
          </mxGeometry>
        </mxCell>
        <mxCell id="pupvY-80oi3LW0AHCR_--4" style="edgeStyle=none;rounded=0;orthogonalLoop=1;jettySize=auto;html=1;entryX=0;entryY=0;entryDx=0;entryDy=0;" parent="1" target="pupvY-80oi3LW0AHCR_--11" edge="1">
          <mxGeometry relative="1" as="geometry">
            <mxPoint x="1100" y="969" as="sourcePoint" />
            <Array as="points">
              <mxPoint x="1100" y="1037" />
            </Array>
          </mxGeometry>
        </mxCell>
        <mxCell id="pupvY-80oi3LW0AHCR_--5" value="atan_poly_i&lt;br&gt;S_0_7" style="whiteSpace=wrap;html=1;shadow=1;fontSize=18;fillColor=#f5f5f5;strokeColor=#666666;" parent="1" vertex="1">
          <mxGeometry x="940" y="939" width="120" height="60" as="geometry" />
        </mxCell>
        <mxCell id="pupvY-80oi3LW0AHCR_--6" style="edgeStyle=none;rounded=0;orthogonalLoop=1;jettySize=auto;html=1;exitX=1;exitY=0.5;exitDx=0;exitDy=0;entryX=0;entryY=0.5;entryDx=0;entryDy=0;" parent="1" source="pupvY-80oi3LW0AHCR_--7" target="pupvY-80oi3LW0AHCR_--11" edge="1">
          <mxGeometry relative="1" as="geometry" />
        </mxCell>
        <mxCell id="pupvY-80oi3LW0AHCR_--7" value="para_B&lt;br&gt;S_0_7" style="whiteSpace=wrap;html=1;shadow=1;fontSize=18;fillColor=#f5f5f5;strokeColor=#666666;" parent="1" vertex="1">
          <mxGeometry x="940" y="1037" width="120" height="60" as="geometry" />
        </mxCell>
        <mxCell id="pupvY-80oi3LW0AHCR_--8" style="edgeStyle=none;rounded=0;orthogonalLoop=1;jettySize=auto;html=1;exitX=1;exitY=0.5;exitDx=0;exitDy=0;entryX=0;entryY=0.5;entryDx=0;entryDy=0;" parent="1" source="pupvY-80oi3LW0AHCR_--9" target="pupvY-80oi3LW0AHCR_--19" edge="1">
          <mxGeometry relative="1" as="geometry" />
        </mxCell>
        <mxCell id="pupvY-80oi3LW0AHCR_--9" value="X" style="ellipse;whiteSpace=wrap;html=1;aspect=fixed;" parent="1" vertex="1">
          <mxGeometry x="1130" y="944" width="50" height="50" as="geometry" />
        </mxCell>
        <mxCell id="pupvY-80oi3LW0AHCR_--10" style="edgeStyle=none;rounded=0;orthogonalLoop=1;jettySize=auto;html=1;exitX=1;exitY=0.5;exitDx=0;exitDy=0;entryX=0;entryY=0.5;entryDx=0;entryDy=0;" parent="1" source="pupvY-80oi3LW0AHCR_--11" target="pupvY-80oi3LW0AHCR_--13" edge="1">
          <mxGeometry relative="1" as="geometry" />
        </mxCell>
        <mxCell id="pupvY-80oi3LW0AHCR_--11" value="X" style="ellipse;whiteSpace=wrap;html=1;aspect=fixed;" parent="1" vertex="1">
          <mxGeometry x="1130" y="1042" width="50" height="50" as="geometry" />
        </mxCell>
        <mxCell id="pupvY-80oi3LW0AHCR_--12" style="edgeStyle=none;rounded=0;orthogonalLoop=1;jettySize=auto;html=1;exitX=1;exitY=0.5;exitDx=0;exitDy=0;entryX=0;entryY=0.5;entryDx=0;entryDy=0;" parent="1" source="pupvY-80oi3LW0AHCR_--13" target="pupvY-80oi3LW0AHCR_--23" edge="1">
          <mxGeometry relative="1" as="geometry" />
        </mxCell>
        <mxCell id="pupvY-80oi3LW0AHCR_--13" value="mul_B&lt;br&gt;S_0_14" style="whiteSpace=wrap;html=1;shadow=1;fontSize=18;fillColor=#f5f5f5;strokeColor=#666666;" parent="1" vertex="1">
          <mxGeometry x="1230" y="1037" width="120" height="60" as="geometry" />
        </mxCell>
        <mxCell id="pupvY-80oi3LW0AHCR_--14" style="edgeStyle=none;rounded=0;orthogonalLoop=1;jettySize=auto;html=1;exitX=1;exitY=0.5;exitDx=0;exitDy=0;entryX=0;entryY=1;entryDx=0;entryDy=0;" parent="1" source="pupvY-80oi3LW0AHCR_--15" target="pupvY-80oi3LW0AHCR_--23" edge="1">
          <mxGeometry relative="1" as="geometry">
            <Array as="points">
              <mxPoint x="1400" y="1165" />
            </Array>
          </mxGeometry>
        </mxCell>
        <mxCell id="pupvY-80oi3LW0AHCR_--15" value="para_C&lt;br&gt;S_0_7" style="whiteSpace=wrap;html=1;shadow=1;fontSize=18;fillColor=#f5f5f5;strokeColor=#666666;" parent="1" vertex="1">
          <mxGeometry x="1230" y="1135" width="120" height="60" as="geometry" />
        </mxCell>
        <mxCell id="pupvY-80oi3LW0AHCR_--16" style="edgeStyle=none;rounded=0;orthogonalLoop=1;jettySize=auto;html=1;exitX=1;exitY=0.5;exitDx=0;exitDy=0;entryX=0;entryY=0;entryDx=0;entryDy=0;" parent="1" source="pupvY-80oi3LW0AHCR_--17" target="pupvY-80oi3LW0AHCR_--21" edge="1">
          <mxGeometry relative="1" as="geometry">
            <Array as="points">
              <mxPoint x="1400" y="871" />
            </Array>
          </mxGeometry>
        </mxCell>
        <mxCell id="pupvY-80oi3LW0AHCR_--17" value="para_A&lt;br&gt;S_0_7" style="whiteSpace=wrap;html=1;shadow=1;fontSize=18;fillColor=#f5f5f5;strokeColor=#666666;" parent="1" vertex="1">
          <mxGeometry x="1230" y="841" width="120" height="60" as="geometry" />
        </mxCell>
        <mxCell id="pupvY-80oi3LW0AHCR_--18" style="edgeStyle=none;rounded=0;orthogonalLoop=1;jettySize=auto;html=1;exitX=1;exitY=0.5;exitDx=0;exitDy=0;entryX=0;entryY=0.5;entryDx=0;entryDy=0;" parent="1" source="pupvY-80oi3LW0AHCR_--19" target="pupvY-80oi3LW0AHCR_--21" edge="1">
          <mxGeometry relative="1" as="geometry" />
        </mxCell>
        <mxCell id="pupvY-80oi3LW0AHCR_--19" value="atan_poly_pow_2&lt;br&gt;U_2_14" style="whiteSpace=wrap;html=1;shadow=1;fontSize=18;fillColor=#f5f5f5;strokeColor=#666666;" parent="1" vertex="1">
          <mxGeometry x="1215" y="939" width="150" height="60" as="geometry" />
        </mxCell>
        <mxCell id="pupvY-80oi3LW0AHCR_--20" style="edgeStyle=none;rounded=0;orthogonalLoop=1;jettySize=auto;html=1;exitX=1;exitY=0.5;exitDx=0;exitDy=0;entryX=0;entryY=0.5;entryDx=0;entryDy=0;" parent="1" source="pupvY-80oi3LW0AHCR_--21" target="pupvY-80oi3LW0AHCR_--27" edge="1">
          <mxGeometry relative="1" as="geometry" />
        </mxCell>
        <mxCell id="pupvY-80oi3LW0AHCR_--21" value="X" style="ellipse;whiteSpace=wrap;html=1;aspect=fixed;" parent="1" vertex="1">
          <mxGeometry x="1420" y="944" width="50" height="50" as="geometry" />
        </mxCell>
        <mxCell id="pupvY-80oi3LW0AHCR_--22" style="edgeStyle=none;rounded=0;orthogonalLoop=1;jettySize=auto;html=1;exitX=1;exitY=0.5;exitDx=0;exitDy=0;entryX=0;entryY=0.5;entryDx=0;entryDy=0;" parent="1" source="pupvY-80oi3LW0AHCR_--23" target="pupvY-80oi3LW0AHCR_--25" edge="1">
          <mxGeometry relative="1" as="geometry" />
        </mxCell>
        <mxCell id="pupvY-80oi3LW0AHCR_--23" value="&lt;font style=&quot;font-size: 24px;&quot;&gt;+&lt;/font&gt;" style="ellipse;whiteSpace=wrap;html=1;aspect=fixed;" parent="1" vertex="1">
          <mxGeometry x="1420" y="1042" width="50" height="50" as="geometry" />
        </mxCell>
        <mxCell id="pupvY-80oi3LW0AHCR_--24" style="edgeStyle=none;rounded=0;orthogonalLoop=1;jettySize=auto;html=1;exitX=1;exitY=0.5;exitDx=0;exitDy=0;entryX=0;entryY=1;entryDx=0;entryDy=0;" parent="1" source="pupvY-80oi3LW0AHCR_--25" target="pupvY-80oi3LW0AHCR_--28" edge="1">
          <mxGeometry relative="1" as="geometry" />
        </mxCell>
        <mxCell id="pupvY-80oi3LW0AHCR_--25" value="add_C&lt;br&gt;S_1_14" style="whiteSpace=wrap;html=1;shadow=1;fontSize=18;fillColor=#f5f5f5;strokeColor=#666666;" parent="1" vertex="1">
          <mxGeometry x="1520" y="1037" width="120" height="60" as="geometry" />
        </mxCell>
        <mxCell id="pupvY-80oi3LW0AHCR_--26" style="edgeStyle=none;rounded=0;orthogonalLoop=1;jettySize=auto;html=1;exitX=1;exitY=0.5;exitDx=0;exitDy=0;entryX=0;entryY=0.5;entryDx=0;entryDy=0;" parent="1" source="pupvY-80oi3LW0AHCR_--27" target="pupvY-80oi3LW0AHCR_--28" edge="1">
          <mxGeometry relative="1" as="geometry" />
        </mxCell>
        <mxCell id="pupvY-80oi3LW0AHCR_--27" value="mul_A&lt;br&gt;S_2_21" style="whiteSpace=wrap;html=1;shadow=1;fontSize=18;fillColor=#f5f5f5;strokeColor=#666666;" parent="1" vertex="1">
          <mxGeometry x="1520" y="939" width="120" height="60" as="geometry" />
        </mxCell>
        <mxCell id="pupvY-80oi3LW0AHCR_--28" value="&lt;font style=&quot;font-size: 24px;&quot;&gt;+&lt;/font&gt;" style="ellipse;whiteSpace=wrap;html=1;aspect=fixed;" parent="1" vertex="1">
          <mxGeometry x="1710" y="944" width="50" height="50" as="geometry" />
        </mxCell>
        <mxCell id="pupvY-80oi3LW0AHCR_--29" style="edgeStyle=none;rounded=0;orthogonalLoop=1;jettySize=auto;html=1;exitX=1;exitY=0.5;exitDx=0;exitDy=0;entryX=0;entryY=0.5;entryDx=0;entryDy=0;" parent="1" target="pupvY-80oi3LW0AHCR_--30" edge="1">
          <mxGeometry relative="1" as="geometry">
            <mxPoint x="1760" y="969" as="sourcePoint" />
          </mxGeometry>
        </mxCell>
        <mxCell id="pupvY-80oi3LW0AHCR_--30" value="angle_r&lt;br&gt;S_3_21" style="whiteSpace=wrap;html=1;shadow=1;fontSize=18;fillColor=#f5f5f5;strokeColor=#666666;" parent="1" vertex="1">
          <mxGeometry x="1810" y="939" width="120" height="60" as="geometry" />
        </mxCell>
        <mxCell id="pupvY-80oi3LW0AHCR_--31" value="&lt;font style=&quot;font-size: 22px;&quot;&gt;atan_ploly&lt;/font&gt;" style="text;html=1;align=center;verticalAlign=middle;resizable=0;points=[];autosize=1;strokeColor=none;fillColor=none;" parent="1" vertex="1">
          <mxGeometry x="1820" y="837" width="120" height="40" as="geometry" />
        </mxCell>
      </root>
    </mxGraphModel>
  </diagram>
</mxfile>
